<svg xmlns="http://www.w3.org/2000/svg" width="420mm" height="297mm" viewBox="0 0 420 297">
<title>ГП — Схема планировочной организации участка</title>
<defs>
 <pattern id="hBlock" width="1.6" height="1.6" patternUnits="userSpaceOnUse" patternTransform="rotate(45)">
  <line x1="0" y1="0" x2="0" y2="1.6" stroke="#000" stroke-width="0.13"/></pattern>
 <pattern id="hBlockGray" width="1.6" height="1.6" patternUnits="userSpaceOnUse" patternTransform="rotate(45)">
  <line x1="0" y1="0" x2="0" y2="1.6" stroke="#9a9a9a" stroke-width="0.13"/></pattern>
 <pattern id="hPart" width="1.2" height="1.2" patternUnits="userSpaceOnUse" patternTransform="rotate(-45)">
  <line x1="0" y1="0" x2="0" y2="1.2" stroke="#000" stroke-width="0.1"/></pattern>
 <pattern id="hConcrete" width="4" height="4" patternUnits="userSpaceOnUse">
  <rect width="4" height="4" fill="#f2f2f2"/>
  <circle cx="0.8" cy="0.9" r="0.22" fill="#000"/><circle cx="2.9" cy="2.6" r="0.18" fill="#000"/>
  <path d="M2.2 0.6 l0.7 0.2 l-0.5 0.5 z" fill="none" stroke="#000" stroke-width="0.12"/>
  <path d="M0.6 2.8 l0.8 0.1 l-0.4 0.6 z" fill="none" stroke="#000" stroke-width="0.12"/></pattern>
 <pattern id="hSand" width="2" height="2" patternUnits="userSpaceOnUse">
  <circle cx="0.5" cy="0.5" r="0.14" fill="#555"/><circle cx="1.5" cy="1.4" r="0.12" fill="#555"/></pattern>
 <pattern id="hSoil" width="3" height="3" patternUnits="userSpaceOnUse" patternTransform="rotate(45)">
  <line x1="0" y1="0" x2="0" y2="3" stroke="#000" stroke-width="0.15"/>
  <line x1="1" y1="0" x2="1" y2="3" stroke="#000" stroke-width="0.15"/></pattern>
 <pattern id="hInsul" width="2.4" height="2.4" patternUnits="userSpaceOnUse">
  <rect width="2.4" height="2.4" fill="#fff8d6"/>
  <path d="M0 2.0 L0.6 0.4 L1.2 2.0 L1.8 0.4 L2.4 2.0" fill="none" stroke="#8a7a2a" stroke-width="0.12"/></pattern>
 <pattern id="hWood" width="2" height="2" patternUnits="userSpaceOnUse">
  <rect width="2" height="2" fill="#f3e2c3"/>
  <path d="M0 1 Q0.5 0.5 1 1 T2 1" fill="none" stroke="#9b7a46" stroke-width="0.12"/></pattern>
 <pattern id="hGravel" width="3" height="3" patternUnits="userSpaceOnUse">
  <rect width="3" height="3" fill="#ececec"/>
  <circle cx="0.8" cy="0.8" r="0.5" fill="none" stroke="#333" stroke-width="0.12"/>
  <circle cx="2.2" cy="2.1" r="0.6" fill="none" stroke="#333" stroke-width="0.12"/></pattern>
 <pattern id="hPlaster" width="1" height="1" patternUnits="userSpaceOnUse">
  <rect width="1" height="1" fill="#e9e9e9"/><circle cx="0.5" cy="0.5" r="0.1" fill="#777"/></pattern>
 <pattern id="hRoof" width="1.4" height="1.4" patternUnits="userSpaceOnUse" patternTransform="rotate(90)">
  <line x1="0" y1="0" x2="0" y2="1.4" stroke="#7b3b30" stroke-width="0.12"/></pattern>
 <pattern id="hBoard" width="1.6" height="10" patternUnits="userSpaceOnUse">
  <rect width="1.6" height="10" fill="#f6efe2"/>
  <line x1="0" y1="0" x2="0" y2="10" stroke="#a08560" stroke-width="0.12"/></pattern>
 <pattern id="hTile" width="3" height="1.6" patternUnits="userSpaceOnUse">
  <rect width="3" height="1.6" fill="#c9cdd2"/>
  <path d="M0 1.6 L3 1.6 M0 0 L0 1.6" stroke="#6c737b" stroke-width="0.12"/></pattern>
 <marker id="arr" viewBox="0 0 10 10" refX="9" refY="5" markerWidth="5" markerHeight="5" orient="auto-start-reverse">
  <path d="M0 0 L10 5 L0 10 z" fill="#000"/></marker>
 <marker id="arrB" viewBox="0 0 10 10" refX="9" refY="5" markerWidth="5" markerHeight="5" orient="auto-start-reverse">
  <path d="M0 0 L10 5 L0 10 z" fill="#1f5fbf"/></marker>
 <marker id="arrK" viewBox="0 0 10 10" refX="9" refY="5" markerWidth="5" markerHeight="5" orient="auto-start-reverse">
  <path d="M0 0 L10 5 L0 10 z" fill="#7a4a12"/></marker>
</defs>

<rect width="420" height="297" fill="#fff"/>
<text x="25" y="13" font-family="DejaVu Sans, Arial, sans-serif" font-size="3.5" text-anchor="start" font-weight="bold" fill="#000">Схема планировочной организации участка  М 1:200</text>
<line x1="25" y1="14" x2="125.8" y2="14" stroke="#000" stroke-width="0.35" fill="none"/>
<rect x="22" y="269.2" width="140" height="12" stroke="#000" stroke-width="0" fill="#eceff2"/>
<line x1="35" y1="270.5" x2="175" y2="270.5" stroke="#555" stroke-width="0.5" fill="none"/>
<text x="100" y="277" font-family="DejaVu Sans, Arial, sans-serif" font-size="2.6" text-anchor="middle" font-weight="normal" fill="#555">УЛИЦА</text>
<polygon points="50,268 150,268 150,43 50,43" stroke="#000" stroke-width="0.6" fill="#fbfbf7"/>
<text x="40" y="118" font-family="DejaVu Sans, Arial, sans-serif" font-size="2" text-anchor="middle" font-weight="normal" fill="#777" transform="rotate(-90 40 118)">соседний участок</text>
<text x="160" y="118" font-family="DejaVu Sans, Arial, sans-serif" font-size="2" text-anchor="middle" font-weight="normal" fill="#777" transform="rotate(-90 160 118)">соседний участок</text>
<rect x="50" y="188" width="25" height="50" stroke="#000" stroke-width="0.4" fill="url(#hBlockGray)"/>
<text x="62.5" y="210.5" font-family="DejaVu Sans, Arial, sans-serif" font-size="2" text-anchor="middle" font-weight="normal" fill="#000">существ.</text>
<text x="62.5" y="213.2" font-family="DejaVu Sans, Arial, sans-serif" font-size="2" text-anchor="middle" font-weight="normal" fill="#000">постройка</text>
<text x="62.5" y="215.9" font-family="DejaVu Sans, Arial, sans-serif" font-size="2" text-anchor="middle" font-weight="normal" fill="#000">5×10 м</text>
<polygon points="76.5,268 94,268 94,185.5 90,185.5 90,158 52.5,158 52.5,185.5 76.5,185.5" stroke="#777" stroke-width="0.25" fill="#e9e6df"/>
<text x="85.25" y="245.5" font-family="DejaVu Sans, Arial, sans-serif" font-size="1.9" text-anchor="middle" font-weight="normal" fill="#555" transform="rotate(-90 85.25 245.5)">подъезд 3,5 м</text>
<text x="67.5" y="170.5" font-family="DejaVu Sans, Arial, sans-serif" font-size="1.9" text-anchor="middle" font-weight="normal" fill="#555">стоянка</text>
<polygon points="81,158 87,158 87,142.5 81,142.5" stroke="#777" stroke-width="0.2" fill="#e9e6df"/>
<polygon points="97.5,173 97.5,185.5 120,185.5 120,173" stroke="#7a5a30" stroke-width="0.3" fill="url(#hWood)"/>
<polygon points="90,113 90,173 135,173 135,113" stroke="#000" stroke-width="0.7" fill="url(#hBlock)"/>
<rect x="103.5" y="136" width="18" height="13" stroke="#000" stroke-width="0.3" fill="#fff"/>
<text x="112.5" y="139.6" font-family="DejaVu Sans, Arial, sans-serif" font-size="2.1" text-anchor="middle" font-weight="normal" fill="#000">Жилой дом</text>
<text x="112.5" y="142.44" font-family="DejaVu Sans, Arial, sans-serif" font-size="2.1" text-anchor="middle" font-weight="normal" fill="#000">9×12 м</text>
<text x="112.5" y="145.27" font-family="DejaVu Sans, Arial, sans-serif" font-size="2.1" text-anchor="middle" font-weight="normal" fill="#000">1 эт.</text>
<text x="112.5" y="148.1" font-family="DejaVu Sans, Arial, sans-serif" font-size="2.1" text-anchor="middle" font-weight="normal" fill="#000">±0.000</text>
<rect x="92.66" y="120.06" width="9.67" height="1.87" stroke="#000" stroke-width="0" fill="#fff"/>
<text x="97.5" y="121.5" font-family="DejaVu Sans, Arial, sans-serif" font-size="1.7" text-anchor="middle" font-weight="normal" fill="#333">котельная</text>
<rect x="95.2" y="159.06" width="14.6" height="1.87" stroke="#000" stroke-width="0" fill="#fff"/>
<text x="102.5" y="160.5" font-family="DejaVu Sans, Arial, sans-serif" font-size="1.7" text-anchor="middle" font-weight="normal" fill="#333">кухня-гостиная</text>
<polygon points="90,135.5 90,142.5 81,142.5 81,135.5" stroke="#000" stroke-width="0.3" fill="#ddd"/>
<line x1="75" y1="139" x2="88.5" y2="139" stroke="#000" stroke-width="0.5" fill="none" marker-end="url(#arr)"/>
<text x="74" y="137.5" font-family="DejaVu Sans, Arial, sans-serif" font-size="2" text-anchor="end" font-weight="bold" fill="#000">вход</text>
<polyline points="90,133.15 87,133.15 87,208 121.25,214.5" stroke="#7a4a12" stroke-width="0.5" fill="none" stroke-dasharray="2.4 0.9"/>
<polyline points="125,219.25 125,236.75" stroke="#7a4a12" stroke-width="0.5" fill="none" stroke-dasharray="2.4 0.9"/>
<circle cx="87" cy="133.15" r="1.3" stroke="#7a4a12" stroke-width="0.35" fill="#fff"/>
<text x="85" y="133.85" font-family="DejaVu Sans, Arial, sans-serif" font-size="1.9" text-anchor="end" font-weight="normal" fill="#7a4a12">КК1</text>
<circle cx="87" cy="208" r="1.3" stroke="#7a4a12" stroke-width="0.35" fill="#fff"/>
<text x="85" y="208.7" font-family="DejaVu Sans, Arial, sans-serif" font-size="1.9" text-anchor="end" font-weight="normal" fill="#7a4a12">КК2</text>
<circle cx="125" cy="215.5" r="3.6" stroke="#7a4a12" stroke-width="0.4" fill="#f6eadb"/>
<text x="125" y="216.3" font-family="DejaVu Sans, Arial, sans-serif" font-size="1.8" text-anchor="middle" font-weight="normal" fill="#7a4a12">септик</text>
<circle cx="125" cy="240.5" r="3.6" stroke="#7a4a12" stroke-width="0.4" fill="url(#hGravel)"/>
<text x="120.4" y="240.1" font-family="DejaVu Sans, Arial, sans-serif" font-size="1.8" text-anchor="end" font-weight="normal" fill="#7a4a12">фильтр.</text>
<text x="120.4" y="242.53" font-family="DejaVu Sans, Arial, sans-serif" font-size="1.8" text-anchor="end" font-weight="normal" fill="#7a4a12">колодец</text>
<polyline points="79,270.5 79,107 95,107 95,113" stroke="#1f5fbf" stroke-width="0.5" fill="none"/>
<circle cx="79" cy="266.5" r="1.2" stroke="#1f5fbf" stroke-width="0.35" fill="#fff"/>
<text x="77" y="264.7" font-family="DejaVu Sans, Arial, sans-serif" font-size="1.8" text-anchor="end" font-weight="normal" fill="#1f5fbf">ВК</text>
<polyline points="83,266 83,136 90,136" stroke="#c0392b" stroke-width="0.45" fill="none" stroke-dasharray="1.4 0.7 0.3 0.7"/>
<rect x="81.6" y="264.6" width="2.8" height="2.8" stroke="#c0392b" stroke-width="0.35" fill="#fff"/>
<text x="85.2" y="264" font-family="DejaVu Sans, Arial, sans-serif" font-size="1.9" text-anchor="start" font-weight="normal" fill="#c0392b">ЩУ</text>
<polyline points="76,121.88 88.5,121.88" stroke="#d4a106" stroke-width="0.45" fill="none" stroke-dasharray="3 0.8 0.6 0.8"/>
<text x="75.5" y="120.67" font-family="DejaVu Sans, Arial, sans-serif" font-size="1.7" text-anchor="end" font-weight="normal" fill="#b08500">Г (ввод)</text>
<line x1="135" y1="165.5" x2="150" y2="165.5" stroke="#000" stroke-width="0.25" fill="none" marker-end="url(#arr)"/>
<line x1="150" y1="165.5" x2="135" y2="165.5" stroke="#000" stroke-width="0.25" fill="none" marker-end="url(#arr)"/>
<rect x="140.27" y="162.52" width="4.45" height="2.31" stroke="#000" stroke-width="0" fill="#fff"/>
<text x="142.5" y="164.3" font-family="DejaVu Sans, Arial, sans-serif" font-size="2.1" text-anchor="middle" font-weight="bold" fill="#000">3,0</text>
<line x1="135" y1="120.5" x2="150" y2="120.5" stroke="#000" stroke-width="0.25" fill="none" marker-end="url(#arr)"/>
<line x1="150" y1="120.5" x2="135" y2="120.5" stroke="#000" stroke-width="0.25" fill="none" marker-end="url(#arr)"/>
<rect x="140.27" y="117.52" width="4.45" height="2.31" stroke="#000" stroke-width="0" fill="#fff"/>
<text x="142.5" y="119.3" font-family="DejaVu Sans, Arial, sans-serif" font-size="2.1" text-anchor="middle" font-weight="bold" fill="#000">3,0</text>
<line x1="115" y1="268" x2="115" y2="173" stroke="#000" stroke-width="0.25" fill="none" marker-end="url(#arr)"/>
<line x1="115" y1="173" x2="115" y2="268" stroke="#000" stroke-width="0.25" fill="none" marker-end="url(#arr)"/>
<text x="113.5" y="220.5" font-family="DejaVu Sans, Arial, sans-serif" font-size="2.1" text-anchor="middle" font-weight="bold" fill="#000" transform="rotate(-90 113.5 220.5)">19,0</text>
<line x1="50" y1="133" x2="90" y2="133" stroke="#000" stroke-width="0.25" fill="none" marker-end="url(#arr)"/>
<line x1="90" y1="133" x2="50" y2="133" stroke="#000" stroke-width="0.25" fill="none" marker-end="url(#arr)"/>
<rect x="67.77" y="130.02" width="4.45" height="2.31" stroke="#000" stroke-width="0" fill="#fff"/>
<text x="70" y="131.8" font-family="DejaVu Sans, Arial, sans-serif" font-size="2.1" text-anchor="middle" font-weight="bold" fill="#000">8,0</text>
<line x1="115" y1="113" x2="115" y2="43" stroke="#000" stroke-width="0.25" fill="none" marker-end="url(#arr)"/>
<line x1="115" y1="43" x2="115" y2="113" stroke="#000" stroke-width="0.25" fill="none" marker-end="url(#arr)"/>
<text x="113.5" y="78" font-family="DejaVu Sans, Arial, sans-serif" font-size="2.1" text-anchor="middle" font-weight="bold" fill="#000" transform="rotate(-90 113.5 78)">14,0</text>
<line x1="62.5" y1="268" x2="62.5" y2="238" stroke="#000" stroke-width="0.25" fill="none" marker-end="url(#arr)"/>
<line x1="62.5" y1="238" x2="62.5" y2="268" stroke="#000" stroke-width="0.25" fill="none" marker-end="url(#arr)"/>
<text x="61" y="253" font-family="DejaVu Sans, Arial, sans-serif" font-size="2.1" text-anchor="middle" font-weight="bold" fill="#000" transform="rotate(-90 61 253)">6,0</text>
<line x1="75" y1="180.5" x2="90" y2="180.5" stroke="#000" stroke-width="0.25" fill="none" marker-end="url(#arr)"/>
<line x1="90" y1="180.5" x2="75" y2="180.5" stroke="#000" stroke-width="0.25" fill="none" marker-end="url(#arr)"/>
<rect x="80.27" y="177.52" width="4.45" height="2.31" stroke="#000" stroke-width="0" fill="#fff"/>
<text x="82.5" y="179.3" font-family="DejaVu Sans, Arial, sans-serif" font-size="2.1" text-anchor="middle" font-weight="bold" fill="#000">3,0</text>
<line x1="48.5" y1="38" x2="151.5" y2="38" stroke="#000" stroke-width="0.2" fill="none"/>
<line x1="50" y1="42" x2="50" y2="36.5" stroke="#000" stroke-width="0.15" fill="none"/>
<line x1="49.1" y1="38.9" x2="50.9" y2="37.1" stroke="#000" stroke-width="0.45" fill="none"/>
<line x1="150" y1="42" x2="150" y2="36.5" stroke="#000" stroke-width="0.15" fill="none"/>
<line x1="149.1" y1="38.9" x2="150.9" y2="37.1" stroke="#000" stroke-width="0.45" fill="none"/>
<text x="100" y="37.3" font-family="DejaVu Sans, Arial, sans-serif" font-size="2.2" text-anchor="middle" font-weight="normal" fill="#000">20000</text>
<line x1="160" y1="41.5" x2="160" y2="269.5" stroke="#000" stroke-width="0.2" fill="none"/>
<line x1="151" y1="268" x2="161.5" y2="268" stroke="#000" stroke-width="0.15" fill="none"/>
<line x1="159.1" y1="268.9" x2="160.9" y2="267.1" stroke="#000" stroke-width="0.45" fill="none"/>
<line x1="151" y1="43" x2="161.5" y2="43" stroke="#000" stroke-width="0.15" fill="none"/>
<line x1="159.1" y1="43.9" x2="160.9" y2="42.1" stroke="#000" stroke-width="0.45" fill="none"/>
<text x="159.3" y="155.5" font-family="DejaVu Sans, Arial, sans-serif" font-size="2.2" text-anchor="middle" font-weight="normal" fill="#000" transform="rotate(-90 159.3 155.5)">45000</text>
<circle cx="160" cy="30" r="5" stroke="#000" stroke-width="0.3" fill="none"/>
<polygon points="160,25 158.2,33.5 161.8,33.5" stroke="#000" stroke-width="0.3" fill="#000"/>
<text x="160" y="23.5" font-family="DejaVu Sans, Arial, sans-serif" font-size="3" text-anchor="middle" font-weight="bold" fill="#000">С</text>
<text x="180" y="24" font-family="DejaVu Sans, Arial, sans-serif" font-size="2.8" text-anchor="start" font-weight="bold" fill="#000">Условные обозначения</text>
<rect x="180" y="27.4" width="9" height="3.6" stroke="#000" stroke-width="0.3" fill="url(#hBlock)"/>
<text x="192" y="30" font-family="DejaVu Sans, Arial, sans-serif" font-size="2.1" text-anchor="start" font-weight="normal" fill="#000">Проектируемый жилой дом 9×12 м</text>
<rect x="180" y="34.4" width="9" height="3.6" stroke="#000" stroke-width="0.3" fill="url(#hBlockGray)"/>
<text x="192" y="37" font-family="DejaVu Sans, Arial, sans-serif" font-size="2.1" text-anchor="start" font-weight="normal" fill="#000">Существующая постройка 5×10 м (по левой границе, 6 м от улицы)</text>
<rect x="180" y="41.4" width="9" height="3.6" stroke="#000" stroke-width="0.3" fill="url(#hWood)"/>
<text x="192" y="44" font-family="DejaVu Sans, Arial, sans-serif" font-size="2.1" text-anchor="start" font-weight="normal" fill="#000">Терраса (по желанию), настил по лагам</text>
<rect x="180" y="48.4" width="9" height="3.6" stroke="#000" stroke-width="0.3" fill="#e9e6df"/>
<text x="192" y="51" font-family="DejaVu Sans, Arial, sans-serif" font-size="2.1" text-anchor="start" font-weight="normal" fill="#000">Подъезд, стоянка, дорожки — тротуарная плитка / щебень</text>
<line x1="180" y1="57.2" x2="189" y2="57.2" stroke="#1f5fbf" stroke-width="0.6" fill="none"/>
<text x="192" y="58" font-family="DejaVu Sans, Arial, sans-serif" font-size="2.1" text-anchor="start" font-weight="normal" fill="#000">В1 — водопровод ПЭ100 Ø32, глубина 1,8 м; ввод через торец (ось 1)</text>
<line x1="180" y1="64.2" x2="189" y2="64.2" stroke="#7a4a12" stroke-width="0.6" fill="none" stroke-dasharray="2.2 0.8"/>
<text x="192" y="65" font-family="DejaVu Sans, Arial, sans-serif" font-size="2.1" text-anchor="start" font-weight="normal" fill="#000">К1 — канализация ПВХ Ø110, i ≥ 0,02, глубина 0,7–1,2 м, утепление</text>
<line x1="180" y1="71.2" x2="189" y2="71.2" stroke="#c0392b" stroke-width="0.6" fill="none" stroke-dasharray="2.2 0.8"/>
<text x="192" y="72" font-family="DejaVu Sans, Arial, sans-serif" font-size="2.1" text-anchor="start" font-weight="normal" fill="#000">Кабель ВБбШв 5×10 от ЩУ в траншее 0,7 м (в трубе ПНД под проездом)</text>
<line x1="180" y1="78.2" x2="189" y2="78.2" stroke="#d4a106" stroke-width="0.6" fill="none" stroke-dasharray="2.2 0.8"/>
<text x="192" y="79" font-family="DejaVu Sans, Arial, sans-serif" font-size="2.1" text-anchor="start" font-weight="normal" fill="#000">Г — ввод газа в котельную; трасса — по проекту газоснабжающей организации</text>
<text x="180" y="90" font-family="DejaVu Sans, Arial, sans-serif" font-size="2.8" text-anchor="start" font-weight="bold" fill="#000">Показатели участка</text>
<rect x="180" y="92" width="142" height="5" stroke="#000" stroke-width="0.4" fill="none"/>
<text x="220" y="95.24" font-family="DejaVu Sans, Arial, sans-serif" font-size="2.05" text-anchor="middle" font-weight="bold" fill="#000">Показатель</text>
<line x1="260" y1="92" x2="260" y2="97" stroke="#000" stroke-width="0.25" fill="none"/>
<text x="291" y="95.24" font-family="DejaVu Sans, Arial, sans-serif" font-size="2.05" text-anchor="middle" font-weight="bold" fill="#000">Значение</text>
<rect x="180" y="97" width="142" height="5" stroke="#000" stroke-width="0.25" fill="none"/>
<text x="181" y="100.24" font-family="DejaVu Sans, Arial, sans-serif" font-size="2.05" text-anchor="start" font-weight="normal" fill="#000">Размеры / площадь участка</text>
<line x1="260" y1="97" x2="260" y2="102" stroke="#000" stroke-width="0.25" fill="none"/>
<text x="261" y="100.24" font-family="DejaVu Sans, Arial, sans-serif" font-size="2.05" text-anchor="start" font-weight="normal" fill="#000">20×45 м / 900 м² (0,09 га)</text>
<rect x="180" y="102" width="142" height="5" stroke="#000" stroke-width="0.25" fill="none"/>
<text x="181" y="105.24" font-family="DejaVu Sans, Arial, sans-serif" font-size="2.05" text-anchor="start" font-weight="normal" fill="#000">Застройка: дом / терраса / постройка</text>
<line x1="260" y1="102" x2="260" y2="107" stroke="#000" stroke-width="0.25" fill="none"/>
<text x="261" y="105.24" font-family="DejaVu Sans, Arial, sans-serif" font-size="2.05" text-anchor="start" font-weight="normal" fill="#000">108,0 / 11,2 / 50 м²</text>
<rect x="180" y="107" width="142" height="5" stroke="#000" stroke-width="0.25" fill="none"/>
<text x="181" y="110.24" font-family="DejaVu Sans, Arial, sans-serif" font-size="2.05" text-anchor="start" font-weight="normal" fill="#000">Процент застройки</text>
<line x1="260" y1="107" x2="260" y2="112" stroke="#000" stroke-width="0.25" fill="none"/>
<text x="261" y="110.24" font-family="DejaVu Sans, Arial, sans-serif" font-size="2.05" text-anchor="start" font-weight="normal" fill="#000">19 %</text>
<rect x="180" y="112" width="142" height="5" stroke="#000" stroke-width="0.25" fill="none"/>
<text x="181" y="115.24" font-family="DejaVu Sans, Arial, sans-serif" font-size="2.05" text-anchor="start" font-weight="normal" fill="#000">Дом → правая граница</text>
<line x1="260" y1="112" x2="260" y2="117" stroke="#000" stroke-width="0.25" fill="none"/>
<text x="261" y="115.24" font-family="DejaVu Sans, Arial, sans-serif" font-size="2.05" text-anchor="start" font-weight="normal" fill="#000">3,0 м</text>
<rect x="180" y="117" width="142" height="5" stroke="#000" stroke-width="0.25" fill="none"/>
<text x="181" y="120.24" font-family="DejaVu Sans, Arial, sans-serif" font-size="2.05" text-anchor="start" font-weight="normal" fill="#000">Дом → улица / левая граница / задняя</text>
<line x1="260" y1="117" x2="260" y2="122" stroke="#000" stroke-width="0.25" fill="none"/>
<text x="261" y="120.24" font-family="DejaVu Sans, Arial, sans-serif" font-size="2.05" text-anchor="start" font-weight="normal" fill="#000">19,0 / 8,0 / 14,0 м</text>
<rect x="180" y="122" width="142" height="5" stroke="#000" stroke-width="0.25" fill="none"/>
<text x="181" y="125.24" font-family="DejaVu Sans, Arial, sans-serif" font-size="2.05" text-anchor="start" font-weight="normal" fill="#000">Дом → постройка (по горизонтали / по вертикали)</text>
<line x1="260" y1="122" x2="260" y2="127" stroke="#000" stroke-width="0.25" fill="none"/>
<text x="261" y="125.24" font-family="DejaVu Sans, Arial, sans-serif" font-size="2.05" text-anchor="start" font-weight="normal" fill="#000">3,0 / 3,0 м</text>
<rect x="180" y="127" width="142" height="5" stroke="#000" stroke-width="0.25" fill="none"/>
<text x="181" y="130.24" font-family="DejaVu Sans, Arial, sans-serif" font-size="2.05" text-anchor="start" font-weight="normal" fill="#000">Септик → дом / граница / постройка</text>
<line x1="260" y1="127" x2="260" y2="132" stroke="#000" stroke-width="0.25" fill="none"/>
<text x="261" y="130.24" font-family="DejaVu Sans, Arial, sans-serif" font-size="2.05" text-anchor="start" font-weight="normal" fill="#000">8,5 / 5,0 / 10,0 м</text>
<text x="180" y="139" font-family="DejaVu Sans, Arial, sans-serif" font-size="2.8" text-anchor="start" font-weight="bold" fill="#000">Примечания</text>
<text x="180" y="143.5" font-family="DejaVu Sans, Arial, sans-serif" font-size="2.05" text-anchor="start" font-weight="normal" fill="#000">1. Участок 20×45 м (по данным заказчика), улица — по короткой стороне. Перед строительством сверить с</text>
<text x="180" y="146.3" font-family="DejaVu Sans, Arial, sans-serif" font-size="2.05" text-anchor="start" font-weight="normal" fill="#000">кадастровым планом и выполнить топосъёмку М 1:500 с отметками.</text>
<text x="180" y="150.2" font-family="DejaVu Sans, Arial, sans-serif" font-size="2.05" text-anchor="start" font-weight="normal" fill="#000">2. Существующая постройка 5×10 м стоит по левой границе без отступа, в 6 м от улицы, и сохраняется.</text>
<text x="180" y="154.1" font-family="DejaVu Sans, Arial, sans-serif" font-size="2.05" text-anchor="start" font-weight="normal" fill="#000">3. Дом стоит длинной стороной вдоль участка. Задний фасад (ось В) — параллельно правой границе на 3,0 м; на</text>
<text x="180" y="156.9" font-family="DejaVu Sans, Arial, sans-serif" font-size="2.05" text-anchor="start" font-weight="normal" fill="#000">него выходят окна спален 1 и 2. Торец дома — в 3 м за постройкой (19 м от улицы), сзади остаётся 14 м под</text>
<text x="180" y="159.7" font-family="DejaVu Sans, Arial, sans-serif" font-size="2.05" text-anchor="start" font-weight="normal" fill="#000">сад.</text>
<text x="180" y="163.6" font-family="DejaVu Sans, Arial, sans-serif" font-size="2.05" text-anchor="start" font-weight="normal" fill="#000">4. Вход — посередине левого фасада (ось А). Подъезд 3,5 м от улицы проходит справа от постройки, стоянка —</text>
<text x="180" y="166.4" font-family="DejaVu Sans, Arial, sans-serif" font-size="2.05" text-anchor="start" font-weight="normal" fill="#000">за ней, у входа в дом.</text>
<text x="180" y="170.3" font-family="DejaVu Sans, Arial, sans-serif" font-size="2.05" text-anchor="start" font-weight="normal" fill="#000">5. Кухня-гостиная и терраса обращены к улице, котельная — в дальнем от улицы торце. Ввод воды идёт вдоль</text>
<text x="180" y="173.1" font-family="DejaVu Sans, Arial, sans-serif" font-size="2.05" text-anchor="start" font-weight="normal" fill="#000">подъезда и заходит в котельную через торец; выпуск канализации — с левого фасада к КК1, КК2 и септику.</text>
<text x="180" y="175.9" font-family="DejaVu Sans, Arial, sans-serif" font-size="2.05" text-anchor="start" font-weight="normal" fill="#000">Водопровод и канализация параллельны на 1,6 м, не пересекаются.</text>
<text x="180" y="179.8" font-family="DejaVu Sans, Arial, sans-serif" font-size="2.05" text-anchor="start" font-weight="normal" fill="#000">6. Септик — в передней правой части: удобно для ассенизатора, ≥ 5 м до дома и постройки, ≥ 2 м до границы.</text>
<text x="180" y="182.6" font-family="DejaVu Sans, Arial, sans-serif" font-size="2.05" text-anchor="start" font-weight="normal" fill="#000">При наличии городской канализации — подключение к ней, септик не устраивать.</text>
<text x="180" y="186.5" font-family="DejaVu Sans, Arial, sans-serif" font-size="2.05" text-anchor="start" font-weight="normal" fill="#000">7. Отвод дождевой воды — от дома по рельефу, уклон планировки 1–2 %, отмостка 1,0 м.</text>
<rect x="0.2" y="0.2" width="419.6" height="296.6" stroke="#bbb" stroke-width="0.15" fill="none"/>
<rect x="20" y="5" width="395" height="287" stroke="#000" stroke-width="0.7" fill="none"/>
<rect x="230" y="237" width="185" height="55" stroke="#000" stroke-width="0.7" fill="#fff"/>
<line x1="230" y1="242" x2="295" y2="242" stroke="#000" stroke-width="0.25" fill="none"/>
<line x1="230" y1="247" x2="295" y2="247" stroke="#000" stroke-width="0.5" fill="none"/>
<line x1="230" y1="252" x2="295" y2="252" stroke="#000" stroke-width="0.25" fill="none"/>
<line x1="230" y1="257" x2="295" y2="257" stroke="#000" stroke-width="0.25" fill="none"/>
<line x1="230" y1="262" x2="295" y2="262" stroke="#000" stroke-width="0.25" fill="none"/>
<line x1="230" y1="267" x2="295" y2="267" stroke="#000" stroke-width="0.25" fill="none"/>
<line x1="230" y1="272" x2="295" y2="272" stroke="#000" stroke-width="0.25" fill="none"/>
<line x1="230" y1="277" x2="295" y2="277" stroke="#000" stroke-width="0.25" fill="none"/>
<line x1="230" y1="282" x2="295" y2="282" stroke="#000" stroke-width="0.25" fill="none"/>
<line x1="230" y1="287" x2="295" y2="287" stroke="#000" stroke-width="0.25" fill="none"/>
<line x1="237" y1="237" x2="237" y2="252" stroke="#000" stroke-width="0.25" fill="none"/>
<line x1="247" y1="237" x2="247" y2="252" stroke="#000" stroke-width="0.25" fill="none"/>
<line x1="257" y1="237" x2="257" y2="252" stroke="#000" stroke-width="0.25" fill="none"/>
<line x1="272" y1="237" x2="272" y2="252" stroke="#000" stroke-width="0.25" fill="none"/>
<line x1="285" y1="237" x2="285" y2="252" stroke="#000" stroke-width="0.25" fill="none"/>
<line x1="247" y1="252" x2="247" y2="292" stroke="#000" stroke-width="0.25" fill="none"/>
<line x1="272" y1="252" x2="272" y2="292" stroke="#000" stroke-width="0.25" fill="none"/>
<line x1="285" y1="252" x2="285" y2="292" stroke="#000" stroke-width="0.25" fill="none"/>
<text x="233.5" y="250.8" font-family="DejaVu Sans, Arial, sans-serif" font-size="1.8" text-anchor="middle" font-weight="normal" fill="#000">Изм.</text>
<text x="242" y="250.8" font-family="DejaVu Sans, Arial, sans-serif" font-size="1.8" text-anchor="middle" font-weight="normal" fill="#000">Кол.</text>
<text x="252" y="250.8" font-family="DejaVu Sans, Arial, sans-serif" font-size="1.8" text-anchor="middle" font-weight="normal" fill="#000">Лист</text>
<text x="264.5" y="250.8" font-family="DejaVu Sans, Arial, sans-serif" font-size="1.8" text-anchor="middle" font-weight="normal" fill="#000">№док</text>
<text x="278.5" y="250.8" font-family="DejaVu Sans, Arial, sans-serif" font-size="1.8" text-anchor="middle" font-weight="normal" fill="#000">Подп.</text>
<text x="290" y="250.8" font-family="DejaVu Sans, Arial, sans-serif" font-size="1.8" text-anchor="middle" font-weight="normal" fill="#000">Дата</text>
<text x="231" y="255.8" font-family="DejaVu Sans, Arial, sans-serif" font-size="1.9" text-anchor="start" font-weight="normal" fill="#000">Разраб.</text>
<text x="248" y="255.8" font-family="DejaVu Sans, Arial, sans-serif" font-size="1.9" text-anchor="start" font-weight="normal" fill="#000">Claude</text>
<text x="285.6" y="255.8" font-family="DejaVu Sans, Arial, sans-serif" font-size="1.7" text-anchor="start" font-weight="normal" fill="#000">10.26</text>
<text x="231" y="260.8" font-family="DejaVu Sans, Arial, sans-serif" font-size="1.9" text-anchor="start" font-weight="normal" fill="#000">Пров.</text>
<text x="248" y="260.8" font-family="DejaVu Sans, Arial, sans-serif" font-size="1.9" text-anchor="start" font-weight="normal" fill="#000"></text>
<text x="231" y="265.8" font-family="DejaVu Sans, Arial, sans-serif" font-size="1.9" text-anchor="start" font-weight="normal" fill="#000">ГИП</text>
<text x="248" y="265.8" font-family="DejaVu Sans, Arial, sans-serif" font-size="1.9" text-anchor="start" font-weight="normal" fill="#000"></text>
<text x="231" y="270.8" font-family="DejaVu Sans, Arial, sans-serif" font-size="1.9" text-anchor="start" font-weight="normal" fill="#000">Н.контр.</text>
<text x="248" y="270.8" font-family="DejaVu Sans, Arial, sans-serif" font-size="1.9" text-anchor="start" font-weight="normal" fill="#000"></text>
<text x="231" y="275.8" font-family="DejaVu Sans, Arial, sans-serif" font-size="1.9" text-anchor="start" font-weight="normal" fill="#000">Утв.</text>
<text x="248" y="275.8" font-family="DejaVu Sans, Arial, sans-serif" font-size="1.9" text-anchor="start" font-weight="normal" fill="#000"></text>
<line x1="295" y1="237" x2="295" y2="292" stroke="#000" stroke-width="0.7" fill="none"/>
<line x1="295" y1="252" x2="415" y2="252" stroke="#000" stroke-width="0.7" fill="none"/>
<line x1="295" y1="277" x2="415" y2="277" stroke="#000" stroke-width="0.7" fill="none"/>
<line x1="365" y1="252" x2="365" y2="292" stroke="#000" stroke-width="0.7" fill="none"/>
<text x="355" y="246.5" font-family="DejaVu Sans, Arial, sans-serif" font-size="4.5" text-anchor="middle" font-weight="bold" fill="#000">ДОМ-9х12-ГП</text>
<text x="330" y="262" font-family="DejaVu Sans, Arial, sans-serif" font-size="2.6" text-anchor="middle" font-weight="normal" fill="#000">Одноэтажный жилой дом 9×12 м</text>
<text x="330" y="265.51" font-family="DejaVu Sans, Arial, sans-serif" font-size="2.6" text-anchor="middle" font-weight="normal" fill="#000">г. Бобруйск, Могилёвская обл.</text>
<line x1="365" y1="257" x2="415" y2="257" stroke="#000" stroke-width="0.25" fill="none"/>
<line x1="365" y1="264" x2="415" y2="264" stroke="#000" stroke-width="0.5" fill="none"/>
<line x1="380" y1="252" x2="380" y2="264" stroke="#000" stroke-width="0.25" fill="none"/>
<line x1="397" y1="252" x2="397" y2="264" stroke="#000" stroke-width="0.25" fill="none"/>
<text x="372.5" y="255.6" font-family="DejaVu Sans, Arial, sans-serif" font-size="1.8" text-anchor="middle" font-weight="normal" fill="#000">Стадия</text>
<text x="388.5" y="255.6" font-family="DejaVu Sans, Arial, sans-serif" font-size="1.8" text-anchor="middle" font-weight="normal" fill="#000">Лист</text>
<text x="406" y="255.6" font-family="DejaVu Sans, Arial, sans-serif" font-size="1.8" text-anchor="middle" font-weight="normal" fill="#000">Листов</text>
<text x="372.5" y="262" font-family="DejaVu Sans, Arial, sans-serif" font-size="2.6" text-anchor="middle" font-weight="normal" fill="#000">ЭП</text>
<text x="388.5" y="262" font-family="DejaVu Sans, Arial, sans-serif" font-size="2.6" text-anchor="middle" font-weight="normal" fill="#000">2</text>
<text x="406" y="262" font-family="DejaVu Sans, Arial, sans-serif" font-size="2.6" text-anchor="middle" font-weight="normal" fill="#000">11</text>
<text x="390" y="268.5" font-family="DejaVu Sans, Arial, sans-serif" font-size="1.9" text-anchor="middle" font-weight="normal" fill="#000">Эскизный проект.</text>
<text x="390" y="271.06" font-family="DejaVu Sans, Arial, sans-serif" font-size="1.9" text-anchor="middle" font-weight="normal" fill="#000">Строительство — после</text>
<text x="390" y="273.63" font-family="DejaVu Sans, Arial, sans-serif" font-size="1.9" text-anchor="middle" font-weight="normal" fill="#000">привязки и экспертизы</text>
<text x="330" y="282.9" font-family="DejaVu Sans, Arial, sans-serif" font-size="2.6" text-anchor="middle" font-weight="bold" fill="#000">Схема планировочной организации</text>
<text x="330" y="286.2" font-family="DejaVu Sans, Arial, sans-serif" font-size="2.6" text-anchor="middle" font-weight="bold" fill="#000">участка</text>
<text x="390" y="283" font-family="DejaVu Sans, Arial, sans-serif" font-size="2.2" text-anchor="middle" font-weight="normal" fill="#000">Лист ГП</text>
<text x="390" y="285.97" font-family="DejaVu Sans, Arial, sans-serif" font-size="2.2" text-anchor="middle" font-weight="normal" fill="#000">М 1:200</text>
</svg>
