<svg viewBox="0 0 24 24" fill="none" xmlns="http://www.w3.org/2000/svg"><path d="M12 3a9 9 0 0 0-7.8 13.4L3 21l4.7-1.2A9 9 0 1 0 12 3Z" stroke="currentColor" stroke-width="1.7" stroke-linejoin="round"/><path d="M8.6 8.4c.2-.5.5-.5.8-.5h.5c.2 0 .4 0 .5.4.2.5.6 1.5.6 1.6.1.1.1.3 0 .4-.1.2-.1.3-.3.5-.1.2-.3.3-.1.6.2.4.9 1.4 1.9 2.2 1.3 1 2.1 1.3 2.4 1.1.2-.1.3-.4.5-.6.1-.2.3-.2.5-.1.2.1 1.4.6 1.6.7.2.1.4.2.4.3.1.5 0 1.1-.3 1.5-.4.5-1.2.9-2 .9-1.6 0-3.3-.8-4.6-2-1.4-1.3-2.4-2.9-2.7-3.8-.2-.6-.1-1.4.3-2.2Z" fill="currentColor"/></svg>
